<?xml version="1.0" encoding="UTF-8"?><svg id="Layer_1" xmlns="http://www.w3.org/2000/svg" viewBox="0 0 921.77 389.43"><defs><style>.cls-1{fill:#f1f2f2;}</style></defs><g><path class="cls-1" d="M36.27,100.84c0,11.16,1.84,21.88,5.18,31.91C17.13,142.77,0,166.69,0,194.63c0,36.96,29.95,66.92,66.91,66.92,3.6,0,7.13-.3,10.57-.85l-34.55-37.72c-3.19-3.48-2.95-8.89,.53-12.08,3.48-3.19,8.89-2.95,12.08,.53l40.01,43.68c12.34-5.85,22.61-15.36,29.39-27.14v-95.33c.01-4.72,3.84-8.55,8.56-8.55h4.1c4.72,0,8.55,3.83,8.55,8.55v96.66c2.31,4.03,5.03,7.79,8.11,11.24l62.58-65.73c3.26-3.42,8.67-3.55,12.09-.3h0c3.42,3.26,3.55,8.67,.3,12.09l-62.05,65.17c10.73,7.18,23.62,11.38,37.5,11.38,37.32,0,67.58-30.25,67.59-67.57,0-27.45-16.37-51.06-39.88-61.65,3.6-10.37,5.58-21.49,5.58-33.08C237.99,45.17,192.84,0,137.14,0,81.44,0,36.28,45.14,36.27,100.84Z"/><path class="cls-1" d="M154.27,240.55l-8.12,8.53v-19.76c-4.77-8.26-7.85-17.62-8.74-27.61-.1,0-.19,0-.29,0-1.22,0-2.43-.05-3.64-.09-.99,9.52-3.97,18.45-8.53,26.36v59.22s-29.39-32.08-29.39-32.08c-5.64,2.67-11.7,4.58-18.07,5.59l47.45,51.81v50.53c0,4.72,3.82,8.55,8.54,8.55h4.1c4.72,0,8.55-3.83,8.55-8.55v-89.17s21.05-22.1,21.05-22.1c-4.77-3.19-9.11-6.97-12.92-11.24Z"/></g><g><path class="cls-1" d="M339.29,47.25l-76.18-.94,.33-26.97,185.44,2.29-.33,26.97-76.55-.95-2.7,218.66-32.7-.4,2.7-218.66Z"/><path class="cls-1" d="M457.37,146.03c.26-20.77,.11-38.64-.81-55.05l28.61,.35,.69,34.63,1.49,.02c8.47-23.59,28.35-38.29,50.27-38.02,3.72,.05,6.31,.44,9.28,1.21l-.37,30.25c-3.34-.77-6.68-1.18-11.14-1.23-23.04-.28-39.6,16.64-44.36,40.64-.8,4.37-1.6,9.46-1.67,14.92l-1.16,94.02-32.33-.4,1.5-121.35Z"/><path class="cls-1" d="M592.91,186.7c.21,43.38,28.23,61.58,60.93,61.99,23.41,.29,37.58-3.54,49.91-8.5l5.29,23.03c-11.58,4.96-31.35,10.55-59.96,10.19-55.37-.68-88-36.81-87.35-90.01,.66-53.21,33.13-94.72,85.53-94.07,58.72,.72,73.7,51.57,73.3,84.01-.08,6.56-.89,11.65-1.3,14.93l-126.35-1.56Zm96.16-21.77c.62-20.4-7.91-52.22-44.7-52.67-33.07-.41-47.94,29.3-50.81,51.49l95.51,1.18Z"/><path class="cls-1" d="M779.09,189c.21,43.37,28.23,61.58,60.93,61.98,23.41,.29,37.58-3.54,49.91-8.5l5.29,23.03c-11.58,4.96-31.35,10.55-59.96,10.19-55.37-.68-88.01-36.8-87.35-90.01,.66-53.21,33.14-94.72,85.53-94.07,58.72,.73,73.7,51.57,73.3,84.01-.08,6.56-.89,11.65-1.3,14.93l-126.35-1.56Zm96.16-21.78c.62-20.4-7.9-52.22-44.7-52.67-33.07-.41-47.94,29.3-50.81,51.49l95.5,1.18Z"/></g><g><path class="cls-1" d="M338.08,286.15c4.59-.71,10.58-1.29,18.21-1.19,9.37,.12,16.2,2.38,20.51,6.35,3.99,3.53,6.32,8.9,6.24,15.44-.08,6.64-2.11,11.85-5.86,15.62-5.08,5.28-13.28,7.9-22.54,7.78-2.83-.04-5.44-.18-7.62-.75l-.36,29.41-9.48-.12,.9-72.55Zm9.04,35.52c2.06,.57,4.68,.82,7.83,.86,11.44,.14,18.48-5.33,18.6-15.46,.12-9.69-6.69-14.46-17.14-14.59-4.14-.05-7.3,.24-8.94,.65l-.35,28.54Z"/><path class="cls-1" d="M395.21,282.06l9.59,.12-.41,32.9h.22c1.56-2.7,3.98-5.07,6.95-6.67,2.85-1.6,6.24-2.65,9.84-2.6,7.08,.09,18.36,4.58,18.13,22.77l-.39,31.37-9.59-.12,.37-30.28c.1-8.5-2.97-15.73-12.01-15.84-6.21-.08-11.16,4.22-12.97,9.43-.56,1.3-.69,2.71-.71,4.57l-.39,31.81-9.59-.12,.95-77.34Z"/><path class="cls-1" d="M502.75,333.94c-.24,19.5-13.85,27.83-26.6,27.67-14.27-.18-25.14-10.77-24.94-27.44,.22-17.65,11.89-27.85,26.49-27.67,15.14,.19,25.24,11.31,25.05,27.44Zm-41.84,.03c-.14,11.55,6.4,20.34,15.76,20.46,9.15,.11,16.12-8.41,16.27-20.28,.11-8.93-4.22-20.32-15.54-20.46-11.33-.14-16.36,10.26-16.48,20.28Z"/><path class="cls-1" d="M526.89,293.16l-.19,15.14,13.73,.17-.09,7.3-13.72-.17-.35,28.43c-.08,6.54,1.73,10.26,7.06,10.33,2.51,.03,4.36-.27,5.56-.59l.35,7.2c-1.86,.74-4.81,1.25-8.51,1.2-4.47-.05-8.04-1.51-10.3-4.16-2.69-2.87-3.61-7.56-3.53-13.77l.36-28.76-8.17-.1,.09-7.3,8.17,.1,.16-12.64,9.4-2.39Z"/><path class="cls-1" d="M597.95,335.11c-.24,19.5-13.85,27.83-26.6,27.67-14.27-.18-25.14-10.77-24.94-27.44,.22-17.65,11.89-27.85,26.49-27.67,15.14,.19,25.24,11.31,25.05,27.44Zm-41.83,.03c-.14,11.55,6.39,20.34,15.76,20.46,9.15,.11,16.12-8.41,16.27-20.28,.11-8.93-4.22-20.32-15.54-20.46-11.33-.14-16.36,10.26-16.48,20.28Z"/><path class="cls-1" d="M655.78,309.9c-.26,3.81-.54,8.05-.61,14.48l-.38,30.61c-.15,12.09-2.64,19.47-7.81,23.98-5.18,4.73-12.6,6.16-19.25,6.08-6.32-.08-13.27-1.69-17.48-4.57l2.49-7.27c3.46,2.22,8.88,4.25,15.42,4.33,9.8,.12,17.06-4.91,17.22-18.2l.07-5.88h-.22c-3,4.86-8.71,8.71-16.88,8.61-13.07-.16-22.3-11.39-22.12-25.98,.22-17.86,12-27.85,24.09-27.7,9.15,.11,14.1,4.97,16.33,9.35h.22s.53-7.94,.53-7.94l8.39,.1Zm-10.17,20.68c.02-1.63-.07-3.05-.49-4.36-1.67-5.58-6.3-10.21-13.27-10.3-9.15-.11-15.78,7.54-15.93,19.74-.13,10.35,4.99,19.02,15.34,19.15,5.88,.07,11.27-3.56,13.41-9.64,.56-1.63,.81-3.48,.83-5.11l.12-9.48Z"/><path class="cls-1" d="M670.39,326.53c.08-6.21,.03-11.55-.23-16.45l8.39,.1,.2,10.35h.44c2.48-7.04,8.31-11.44,14.74-11.36,1.09,.01,1.85,.13,2.72,.36l-.11,9.04c-.98-.23-1.96-.35-3.26-.37-6.75-.08-11.61,4.98-13.01,12.15-.23,1.3-.47,2.83-.49,4.46l-.35,28.1-9.47-.12,.45-36.27Z"/><path class="cls-1" d="M734.21,363.6l-.68-6.65h-.33c-2.99,4.1-8.7,7.73-16.22,7.64-10.67-.13-16.03-7.72-15.93-15.34,.16-12.74,11.57-19.58,31.94-19.21v-1.09c.07-4.36-1.03-12.22-11.82-12.35-4.9-.06-10.04,1.4-13.77,3.75l-2.1-6.34c4.39-2.78,10.73-4.55,17.38-4.47,16.12,.2,19.91,11.25,19.78,21.82l-.24,19.72c-.06,4.57,.11,9.04,.72,12.65l-8.71-.11Zm-1.08-26.92c-10.45-.35-22.35,1.36-22.48,11.6-.08,6.21,4.03,9.2,8.93,9.26,6.86,.08,11.27-4.22,12.85-8.67,.34-.98,.57-2.06,.58-3.04l.11-9.15Z"/><path class="cls-1" d="M757.95,328.37c.08-6.76-.07-12.2-.22-17.22l8.61,.11,.32,9.05h.22c4-6.38,10.26-10.11,18.86-10,12.75,.16,22.2,11.06,22,27.07-.23,18.95-11.9,28.18-24.31,28.03-6.97-.09-13.03-3.21-16.13-8.48h-.22s-.35,28.65-.35,28.65l-9.47-.12,.71-57.08Zm9.3,14.17c-.02,1.42,.18,2.73,.39,3.93,1.66,6.67,7.38,11.31,14.24,11.4,10.13,.12,16.11-8.08,16.26-20.17,.13-10.57-5.31-19.68-15.44-19.8-6.54-.08-12.7,4.53-14.64,11.7-.34,1.19-.69,2.61-.7,3.91l-.11,9.04Z"/><path class="cls-1" d="M820.45,287.31l9.59,.12-.41,32.9h.22c1.56-2.7,3.99-5.07,6.95-6.67,2.85-1.6,6.24-2.65,9.84-2.6,7.08,.09,18.36,4.58,18.13,22.77l-.39,31.37-9.59-.12,.37-30.28c.11-8.5-2.96-15.73-12.01-15.84-6.21-.08-11.16,4.22-12.97,9.43-.56,1.3-.69,2.71-.71,4.57l-.39,31.81-9.59-.12,.96-77.34Z"/><path class="cls-1" d="M882.66,312.7l11.16,31.3c1.16,3.5,2.41,7.66,3.24,10.83h.22c1.02-3.14,2.16-7.16,3.51-10.96l10.84-30.81,10.13,.12-14.84,37.4c-7.09,18-11.88,27.2-18.49,32.78-4.74,4.08-9.44,5.66-11.84,6.06l-2.3-8.09c2.41-.73,5.59-2.22,8.45-4.58,2.64-2.04,5.95-5.7,8.19-10.58,.45-.97,.79-1.73,.79-2.28s-.2-1.31-.62-2.51l-18.9-48.82,10.46,.13Z"/></g></svg>